<mxfile host="app.diagrams.net" modified="2021-09-17T01:24:31.999Z" agent="5.0 (Windows NT 10.0; Win64; x64) AppleWebKit/537.36 (KHTML, like Gecko) Chrome/93.0.4577.63 Safari/537.36 Edg/93.0.961.47" etag="3h-mcoees8QMtNoJOT7s" version="15.2.7" type="github">
  <diagram id="3gxOAMbR4RBR5quXN4Fo" name="Page-1">
    <mxGraphModel dx="1196" dy="161" grid="1" gridSize="10" guides="1" tooltips="1" connect="1" arrows="1" fold="1" page="1" pageScale="1" pageWidth="827" pageHeight="1169" math="0" shadow="0">
      <root>
        <mxCell id="0" />
        <mxCell id="1" parent="0" />
        <mxCell id="-NNz_gcLVpYp58dY2-dL-1" value="Turma" style="swimlane;fontStyle=1;align=center;verticalAlign=top;childLayout=stackLayout;horizontal=1;startSize=26;horizontalStack=0;resizeParent=1;resizeParentMax=0;resizeLast=0;collapsible=1;marginBottom=0;" parent="1" vertex="1">
          <mxGeometry x="120" y="800" width="160" height="124" as="geometry" />
        </mxCell>
        <mxCell id="-NNz_gcLVpYp58dY2-dL-2" value="- id_turmas: Int&#xa;- sala: Salas&#xa;- total_alunos: TinyInt" style="text;strokeColor=none;fillColor=none;align=left;verticalAlign=top;spacingLeft=4;spacingRight=4;overflow=hidden;rotatable=0;points=[[0,0.5],[1,0.5]];portConstraint=eastwest;" parent="-NNz_gcLVpYp58dY2-dL-1" vertex="1">
          <mxGeometry y="26" width="160" height="64" as="geometry" />
        </mxCell>
        <mxCell id="-NNz_gcLVpYp58dY2-dL-3" value="" style="line;strokeWidth=1;fillColor=none;align=left;verticalAlign=middle;spacingTop=-1;spacingLeft=3;spacingRight=3;rotatable=0;labelPosition=right;points=[];portConstraint=eastwest;" parent="-NNz_gcLVpYp58dY2-dL-1" vertex="1">
          <mxGeometry y="90" width="160" height="8" as="geometry" />
        </mxCell>
        <mxCell id="-NNz_gcLVpYp58dY2-dL-4" value="+ method(type): type" style="text;strokeColor=none;fillColor=none;align=left;verticalAlign=top;spacingLeft=4;spacingRight=4;overflow=hidden;rotatable=0;points=[[0,0.5],[1,0.5]];portConstraint=eastwest;" parent="-NNz_gcLVpYp58dY2-dL-1" vertex="1">
          <mxGeometry y="98" width="160" height="26" as="geometry" />
        </mxCell>
        <mxCell id="nOvZRza75PGBeKDB9BoI-12" style="edgeStyle=orthogonalEdgeStyle;rounded=0;orthogonalLoop=1;jettySize=auto;html=1;endArrow=block;endFill=0;entryX=0.489;entryY=0.997;entryDx=0;entryDy=0;entryPerimeter=0;" parent="1" source="QVgde0wYcYvtslcCwDm_-9" target="nOvZRza75PGBeKDB9BoI-10" edge="1">
          <mxGeometry relative="1" as="geometry">
            <mxPoint x="117" y="552" as="targetPoint" />
            <Array as="points">
              <mxPoint x="470" y="650" />
              <mxPoint x="118" y="650" />
            </Array>
          </mxGeometry>
        </mxCell>
        <mxCell id="QVgde0wYcYvtslcCwDm_-9" value="Professor" style="swimlane;fontStyle=1;align=center;verticalAlign=top;childLayout=stackLayout;horizontal=1;startSize=26;horizontalStack=0;resizeParent=1;resizeParentMax=0;resizeLast=0;collapsible=1;marginBottom=0;" parent="1" vertex="1">
          <mxGeometry x="370" y="725" width="200" height="210" as="geometry" />
        </mxCell>
        <mxCell id="QVgde0wYcYvtslcCwDm_-10" value="- id_professor: Int&#xa;- materia: String&#xa;- email: String&#xa;- entrada: Time&#xa;- saida: Time&#xa;- valorHora: Double&#xa;- tumas: ArrayList&#xa;- aulas: ArrayList" style="text;strokeColor=none;fillColor=none;align=left;verticalAlign=top;spacingLeft=4;spacingRight=4;overflow=hidden;rotatable=0;points=[[0,0.5],[1,0.5]];portConstraint=eastwest;" parent="QVgde0wYcYvtslcCwDm_-9" vertex="1">
          <mxGeometry y="26" width="200" height="124" as="geometry" />
        </mxCell>
        <mxCell id="QVgde0wYcYvtslcCwDm_-11" value="" style="line;strokeWidth=1;fillColor=none;align=left;verticalAlign=middle;spacingTop=-1;spacingLeft=3;spacingRight=3;rotatable=0;labelPosition=right;points=[];portConstraint=eastwest;" parent="QVgde0wYcYvtslcCwDm_-9" vertex="1">
          <mxGeometry y="150" width="200" height="8" as="geometry" />
        </mxCell>
        <mxCell id="QVgde0wYcYvtslcCwDm_-12" value="+ adicionarTurmas(): void&#xa;+ adicionarAulas(): void&#xa;+ calcularSalario(): Double" style="text;strokeColor=none;fillColor=none;align=left;verticalAlign=top;spacingLeft=4;spacingRight=4;overflow=hidden;rotatable=0;points=[[0,0.5],[1,0.5]];portConstraint=eastwest;" parent="QVgde0wYcYvtslcCwDm_-9" vertex="1">
          <mxGeometry y="158" width="200" height="52" as="geometry" />
        </mxCell>
        <mxCell id="nOvZRza75PGBeKDB9BoI-11" style="edgeStyle=orthogonalEdgeStyle;rounded=0;orthogonalLoop=1;jettySize=auto;html=1;entryX=0.39;entryY=1.009;entryDx=0;entryDy=0;entryPerimeter=0;endArrow=block;endFill=0;" parent="1" source="QVgde0wYcYvtslcCwDm_-17" target="nOvZRza75PGBeKDB9BoI-10" edge="1">
          <mxGeometry relative="1" as="geometry" />
        </mxCell>
        <mxCell id="QVgde0wYcYvtslcCwDm_-17" value="Aluno" style="swimlane;fontStyle=1;align=center;verticalAlign=top;childLayout=stackLayout;horizontal=1;startSize=26;horizontalStack=0;resizeParent=1;resizeParentMax=0;resizeLast=0;collapsible=1;marginBottom=0;" parent="1" vertex="1">
          <mxGeometry x="-170" y="760" width="200" height="170" as="geometry" />
        </mxCell>
        <mxCell id="nOvZRza75PGBeKDB9BoI-19" value="- id_alunos: Int&#xa;- turma: Turmas&#xa;- boletins: Boletins&#xa;" style="text;strokeColor=none;fillColor=none;align=left;verticalAlign=top;spacingLeft=4;spacingRight=4;overflow=hidden;rotatable=0;points=[[0,0.5],[1,0.5]];portConstraint=eastwest;" parent="QVgde0wYcYvtslcCwDm_-17" vertex="1">
          <mxGeometry y="26" width="200" height="54" as="geometry" />
        </mxCell>
        <mxCell id="QVgde0wYcYvtslcCwDm_-19" value="" style="line;strokeWidth=1;fillColor=none;align=left;verticalAlign=middle;spacingTop=-1;spacingLeft=3;spacingRight=3;rotatable=0;labelPosition=right;points=[];portConstraint=eastwest;" parent="QVgde0wYcYvtslcCwDm_-17" vertex="1">
          <mxGeometry y="80" width="200" height="8" as="geometry" />
        </mxCell>
        <mxCell id="QVgde0wYcYvtslcCwDm_-20" value="+ Alunos(): void&#xa;+ mostrarDados(): void&#xa;+ cadastrarMedias(): void&#xa;+ cadastrarFaltas(): void&#xa;+ atribuirTurmas(): void" style="text;strokeColor=none;fillColor=none;align=left;verticalAlign=top;spacingLeft=4;spacingRight=4;overflow=hidden;rotatable=0;points=[[0,0.5],[1,0.5]];portConstraint=eastwest;" parent="QVgde0wYcYvtslcCwDm_-17" vertex="1">
          <mxGeometry y="88" width="200" height="82" as="geometry" />
        </mxCell>
        <mxCell id="nOvZRza75PGBeKDB9BoI-1" value="&lt;h1 align=&quot;left&quot;&gt;Diagrama de classes de um sistemas de cadastro para um colégio&lt;br&gt;&lt;/h1&gt;&lt;p align=&quot;left&quot;&gt;&lt;span style=&quot;font-size: 18px&quot;&gt;&amp;nbsp;- Alunos possuem periodoLetivo, notasBimestrais e médiaSemestral, e podem consultar notas e médias bimestrais, semestrais e anuais e as faltas&lt;/span&gt;&lt;/p&gt;&lt;p align=&quot;left&quot;&gt;&lt;span style=&quot;font-size: 18px&quot;&gt;&lt;br&gt;&lt;/span&gt;&lt;/p&gt;&lt;p align=&quot;left&quot;&gt;&lt;span style=&quot;font-size: 18px&quot;&gt;- Boletins possuem: periodo, nota1, nota2, nota3, nota4&lt;/span&gt;&lt;/p&gt;" style="text;html=1;strokeColor=#0e8088;fillColor=#b0e3e6;spacing=5;spacingTop=-20;whiteSpace=wrap;overflow=hidden;rounded=0;align=left;" parent="1" vertex="1">
          <mxGeometry x="820" y="512" width="760" height="358" as="geometry" />
        </mxCell>
        <mxCell id="nOvZRza75PGBeKDB9BoI-7" value="&lt;&lt;abstract&gt;&gt;&#xa;Pessoa" style="swimlane;fontStyle=1;align=center;verticalAlign=top;childLayout=stackLayout;horizontal=1;startSize=40;horizontalStack=0;resizeParent=1;resizeParentMax=0;resizeLast=0;collapsible=1;marginBottom=0;" parent="1" vertex="1">
          <mxGeometry x="20" y="410" width="200" height="130" as="geometry" />
        </mxCell>
        <mxCell id="nOvZRza75PGBeKDB9BoI-8" value="- nome: String&#xa;" style="text;strokeColor=none;fillColor=none;align=left;verticalAlign=top;spacingLeft=4;spacingRight=4;overflow=hidden;rotatable=0;points=[[0,0.5],[1,0.5]];portConstraint=eastwest;" parent="nOvZRza75PGBeKDB9BoI-7" vertex="1">
          <mxGeometry y="40" width="200" height="30" as="geometry" />
        </mxCell>
        <mxCell id="nOvZRza75PGBeKDB9BoI-9" value="" style="line;strokeWidth=1;fillColor=none;align=left;verticalAlign=middle;spacingTop=-1;spacingLeft=3;spacingRight=3;rotatable=0;labelPosition=right;points=[];portConstraint=eastwest;" parent="nOvZRza75PGBeKDB9BoI-7" vertex="1">
          <mxGeometry y="70" width="200" height="8" as="geometry" />
        </mxCell>
        <mxCell id="nOvZRza75PGBeKDB9BoI-10" value="+ Pessoa(String nome)&#xa;+ abstract atribuirTurmas(Turma turma)" style="text;strokeColor=none;fillColor=none;align=left;verticalAlign=top;spacingLeft=4;spacingRight=4;overflow=hidden;rotatable=0;points=[[0,0.5],[1,0.5]];portConstraint=eastwest;" parent="nOvZRza75PGBeKDB9BoI-7" vertex="1">
          <mxGeometry y="78" width="200" height="52" as="geometry" />
        </mxCell>
        <mxCell id="nOvZRza75PGBeKDB9BoI-13" value="Boletim" style="swimlane;fontStyle=1;align=center;verticalAlign=top;childLayout=stackLayout;horizontal=1;startSize=26;horizontalStack=0;resizeParent=1;resizeParentMax=0;resizeLast=0;collapsible=1;marginBottom=0;" parent="1" vertex="1">
          <mxGeometry x="-470" y="710" width="160" height="150" as="geometry" />
        </mxCell>
        <mxCell id="nOvZRza75PGBeKDB9BoI-14" value="- periodo: String&#xa;- disciplinas: HashMap" style="text;strokeColor=none;fillColor=none;align=left;verticalAlign=top;spacingLeft=4;spacingRight=4;overflow=hidden;rotatable=0;points=[[0,0.5],[1,0.5]];portConstraint=eastwest;" parent="nOvZRza75PGBeKDB9BoI-13" vertex="1">
          <mxGeometry y="26" width="160" height="44" as="geometry" />
        </mxCell>
        <mxCell id="nOvZRza75PGBeKDB9BoI-15" value="" style="line;strokeWidth=1;fillColor=none;align=left;verticalAlign=middle;spacingTop=-1;spacingLeft=3;spacingRight=3;rotatable=0;labelPosition=right;points=[];portConstraint=eastwest;" parent="nOvZRza75PGBeKDB9BoI-13" vertex="1">
          <mxGeometry y="70" width="160" height="8" as="geometry" />
        </mxCell>
        <mxCell id="nOvZRza75PGBeKDB9BoI-16" value="+ Boletim(): void&#xa;+ mostrarDados(): void&#xa;+ definirMedias(): void&#xa;+ definirFaltas(): void" style="text;strokeColor=none;fillColor=none;align=left;verticalAlign=top;spacingLeft=4;spacingRight=4;overflow=hidden;rotatable=0;points=[[0,0.5],[1,0.5]];portConstraint=eastwest;" parent="nOvZRza75PGBeKDB9BoI-13" vertex="1">
          <mxGeometry y="78" width="160" height="72" as="geometry" />
        </mxCell>
        <mxCell id="nOvZRza75PGBeKDB9BoI-18" value="1" style="endArrow=open;html=1;endSize=12;startArrow=diamondThin;startSize=14;startFill=1;edgeStyle=orthogonalEdgeStyle;align=left;verticalAlign=bottom;exitX=0.003;exitY=0.092;exitDx=0;exitDy=0;entryX=1;entryY=0.5;entryDx=0;entryDy=0;exitPerimeter=0;" parent="1" source="QVgde0wYcYvtslcCwDm_-17" target="nOvZRza75PGBeKDB9BoI-14" edge="1">
          <mxGeometry x="-0.7644" y="-5" relative="1" as="geometry">
            <mxPoint x="-173.4000000000001" y="903.8820000000001" as="sourcePoint" />
            <mxPoint x="10" y="740" as="targetPoint" />
            <mxPoint as="offset" />
          </mxGeometry>
        </mxCell>
        <mxCell id="nOvZRza75PGBeKDB9BoI-22" value="1" style="endArrow=open;html=1;endSize=12;startArrow=diamondThin;startSize=14;startFill=1;edgeStyle=orthogonalEdgeStyle;align=left;verticalAlign=bottom;exitX=-0.004;exitY=0.126;exitDx=0;exitDy=0;exitPerimeter=0;entryX=0.998;entryY=0.052;entryDx=0;entryDy=0;entryPerimeter=0;" parent="1" source="-NNz_gcLVpYp58dY2-dL-1" target="QVgde0wYcYvtslcCwDm_-17" edge="1">
          <mxGeometry x="-0.8634" y="-6" relative="1" as="geometry">
            <mxPoint x="-160" y="1050" as="sourcePoint" />
            <mxPoint y="1050" as="targetPoint" />
            <mxPoint as="offset" />
          </mxGeometry>
        </mxCell>
        <mxCell id="nOvZRza75PGBeKDB9BoI-23" value="1" style="endArrow=open;html=1;endSize=12;startArrow=diamondThin;startSize=14;startFill=1;edgeStyle=orthogonalEdgeStyle;align=left;verticalAlign=bottom;exitX=1.015;exitY=0.115;exitDx=0;exitDy=0;exitPerimeter=0;entryX=0;entryY=0.122;entryDx=0;entryDy=0;entryPerimeter=0;" parent="1" source="-NNz_gcLVpYp58dY2-dL-1" target="QVgde0wYcYvtslcCwDm_-9" edge="1">
          <mxGeometry x="-1" y="3" relative="1" as="geometry">
            <mxPoint x="190" y="1090" as="sourcePoint" />
            <mxPoint x="280" y="920" as="targetPoint" />
          </mxGeometry>
        </mxCell>
        <mxCell id="nOvZRza75PGBeKDB9BoI-28" value="Disciplina" style="swimlane;fontStyle=1;align=center;verticalAlign=top;childLayout=stackLayout;horizontal=1;startSize=26;horizontalStack=0;resizeParent=1;resizeParentMax=0;resizeLast=0;collapsible=1;marginBottom=0;" parent="1" vertex="1">
          <mxGeometry x="-468" y="970" width="160" height="130" as="geometry" />
        </mxCell>
        <mxCell id="nOvZRza75PGBeKDB9BoI-29" value="- nome: String&#xa;- nota: Double&#xa;- falta: int" style="text;strokeColor=none;fillColor=none;align=left;verticalAlign=top;spacingLeft=4;spacingRight=4;overflow=hidden;rotatable=0;points=[[0,0.5],[1,0.5]];portConstraint=eastwest;" parent="nOvZRza75PGBeKDB9BoI-28" vertex="1">
          <mxGeometry y="26" width="160" height="54" as="geometry" />
        </mxCell>
        <mxCell id="nOvZRza75PGBeKDB9BoI-30" value="" style="line;strokeWidth=1;fillColor=none;align=left;verticalAlign=middle;spacingTop=-1;spacingLeft=3;spacingRight=3;rotatable=0;labelPosition=right;points=[];portConstraint=eastwest;" parent="nOvZRza75PGBeKDB9BoI-28" vertex="1">
          <mxGeometry y="80" width="160" height="8" as="geometry" />
        </mxCell>
        <mxCell id="nOvZRza75PGBeKDB9BoI-31" value="+ method(type): type&#xa;+ consultarnota(): void" style="text;strokeColor=none;fillColor=none;align=left;verticalAlign=top;spacingLeft=4;spacingRight=4;overflow=hidden;rotatable=0;points=[[0,0.5],[1,0.5]];portConstraint=eastwest;" parent="nOvZRza75PGBeKDB9BoI-28" vertex="1">
          <mxGeometry y="88" width="160" height="42" as="geometry" />
        </mxCell>
        <mxCell id="nOvZRza75PGBeKDB9BoI-33" value="1" style="endArrow=open;html=1;endSize=12;startArrow=diamondThin;startSize=14;startFill=0;align=left;verticalAlign=bottom;entryX=0.5;entryY=0;entryDx=0;entryDy=0;" parent="1" target="nOvZRza75PGBeKDB9BoI-28" edge="1">
          <mxGeometry x="-0.75" y="-12" relative="1" as="geometry">
            <mxPoint x="-388" y="870" as="sourcePoint" />
            <mxPoint x="-410" y="820" as="targetPoint" />
            <mxPoint as="offset" />
          </mxGeometry>
        </mxCell>
        <mxCell id="G0VVWm4dyd2l9YODS6ji-1" value="Colegio" style="swimlane;fontStyle=1;align=center;verticalAlign=top;childLayout=stackLayout;horizontal=1;startSize=30;horizontalStack=0;resizeParent=1;resizeParentMax=0;resizeLast=0;collapsible=1;marginBottom=0;" vertex="1" parent="1">
          <mxGeometry x="-310" y="400" width="200" height="240" as="geometry" />
        </mxCell>
        <mxCell id="G0VVWm4dyd2l9YODS6ji-2" value="- alunos: Hashmap&#xa;- professores: Hashmap&#xa;- turmas: Hashmap&#xa;- disciplinas: Hashmap&#xa;" style="text;strokeColor=none;fillColor=none;align=left;verticalAlign=top;spacingLeft=4;spacingRight=4;overflow=hidden;rotatable=0;points=[[0,0.5],[1,0.5]];portConstraint=eastwest;" vertex="1" parent="G0VVWm4dyd2l9YODS6ji-1">
          <mxGeometry y="30" width="200" height="64" as="geometry" />
        </mxCell>
        <mxCell id="G0VVWm4dyd2l9YODS6ji-3" value="" style="line;strokeWidth=1;fillColor=none;align=left;verticalAlign=middle;spacingTop=-1;spacingLeft=3;spacingRight=3;rotatable=0;labelPosition=right;points=[];portConstraint=eastwest;" vertex="1" parent="G0VVWm4dyd2l9YODS6ji-1">
          <mxGeometry y="94" width="200" height="8" as="geometry" />
        </mxCell>
        <mxCell id="G0VVWm4dyd2l9YODS6ji-4" value="+ cadastrarAlunos(): void&#xa;+ cadastrarProfessores(): void&#xa;+ cadastrarMedias(): void&#xa;+ cadastrarFaltas(): void&#xa;+ cadastrarTurmas(): void&#xa;+ consultarDados(): void&#xa;+ relatorioGeral(): void&#xa;+ atualizarDados(): void&#xa;+ atribuirTurmas(): void" style="text;strokeColor=none;fillColor=none;align=left;verticalAlign=top;spacingLeft=4;spacingRight=4;overflow=hidden;rotatable=0;points=[[0,0.5],[1,0.5]];portConstraint=eastwest;" vertex="1" parent="G0VVWm4dyd2l9YODS6ji-1">
          <mxGeometry y="102" width="200" height="138" as="geometry" />
        </mxCell>
      </root>
    </mxGraphModel>
  </diagram>
</mxfile>
